<svg width="393" height="75" viewBox="0 0 393 75" fill="none" xmlns="http://www.w3.org/2000/svg">
<path d="M99.875 50.52C96.755 50.52 95.195 49.0467 95.195 46.1V30.5C95.195 26.08 96.235 22.7217 98.315 20.425C100.438 18.1283 103.472 16.98 107.415 16.98C112.788 16.98 116.428 18.9083 118.335 22.765C120.242 18.9083 123.882 16.98 129.255 16.98C133.198 16.98 136.21 18.1283 138.29 20.425C140.413 22.7217 141.475 26.08 141.475 30.5V46.1C141.475 49.0467 139.915 50.52 136.795 50.52C133.675 50.52 132.115 49.0467 132.115 46.1V31.02C132.115 28.81 131.747 27.2283 131.01 26.275C130.273 25.2783 129.125 24.78 127.565 24.78C124.445 24.78 122.885 26.86 122.885 31.02V45.84C122.885 48.7867 121.368 50.26 118.335 50.26C115.302 50.26 113.785 48.7867 113.785 45.84V31.02C113.785 26.86 112.225 24.78 109.105 24.78C106.072 24.78 104.555 26.86 104.555 31.02V46.1C104.555 49.0467 102.995 50.52 99.875 50.52ZM162.879 50.52C158.242 50.52 154.581 49.1983 151.894 46.555C149.207 43.9117 147.864 39.6433 147.864 33.75C147.864 27.8133 149.207 23.545 151.894 20.945C154.581 18.3017 158.242 16.98 162.879 16.98C167.516 16.98 171.177 18.3017 173.864 20.945C176.551 23.545 177.894 27.8133 177.894 33.75C177.894 39.6433 176.551 43.9117 173.864 46.555C171.177 49.1983 167.516 50.52 162.879 50.52ZM162.879 42.72C164.092 42.72 165.111 42.4817 165.934 42.005C166.757 41.485 167.386 40.575 167.819 39.275C168.296 37.975 168.534 36.1333 168.534 33.75C168.534 31.3667 168.296 29.525 167.819 28.225C167.386 26.925 166.757 26.0367 165.934 25.56C165.111 25.04 164.092 24.78 162.879 24.78C161.709 24.78 160.691 25.04 159.824 25.56C159.001 26.0367 158.351 26.925 157.874 28.225C157.441 29.525 157.224 31.3667 157.224 33.75C157.224 36.1333 157.441 37.975 157.874 39.275C158.351 40.575 159.001 41.485 159.824 42.005C160.691 42.4817 161.709 42.72 162.879 42.72ZM197.624 50.52C192.987 50.52 189.325 49.1983 186.639 46.555C183.952 43.9117 182.609 39.6433 182.609 33.75C182.609 27.8133 183.952 23.545 186.639 20.945C189.325 18.3017 192.987 16.98 197.624 16.98C202.26 16.98 205.922 18.3017 208.609 20.945C211.295 23.545 212.639 27.8133 212.639 33.75C212.639 39.6433 211.295 43.9117 208.609 46.555C205.922 49.1983 202.26 50.52 197.624 50.52ZM197.624 42.72C198.837 42.72 199.855 42.4817 200.679 42.005C201.502 41.485 202.13 40.575 202.564 39.275C203.04 37.975 203.279 36.1333 203.279 33.75C203.279 31.3667 203.04 29.525 202.564 28.225C202.13 26.925 201.502 26.0367 200.679 25.56C199.855 25.04 198.837 24.78 197.624 24.78C196.454 24.78 195.435 25.04 194.569 25.56C193.745 26.0367 193.095 26.925 192.619 28.225C192.185 29.525 191.969 31.3667 191.969 33.75C191.969 36.1333 192.185 37.975 192.619 39.275C193.095 40.575 193.745 41.485 194.569 42.005C195.435 42.4817 196.454 42.72 197.624 42.72ZM232.758 50.52C227.992 50.52 224.222 49.0033 221.448 45.97C218.718 42.9367 217.353 38.495 217.353 32.645C217.353 28.745 217.917 25.6467 219.043 23.35C220.17 21.0533 221.73 19.4283 223.723 18.475C225.76 17.4783 228.057 16.98 230.613 16.98C232.91 16.98 234.773 17.2617 236.203 17.825C237.633 18.3883 238.76 19.3417 239.583 20.685C239.28 19.775 239.042 18.93 238.868 18.15C238.738 17.3267 238.63 16.3733 238.543 15.29C238.5 14.2067 238.478 12.82 238.478 11.13V5.54C238.478 2.16 239.93 0.469998 242.833 0.469998C245.997 0.469998 247.578 2.16 247.578 5.54V33.035C247.578 38.885 246.278 43.2617 243.678 46.165C241.078 49.0683 237.438 50.52 232.758 50.52ZM232.303 42.72C234.123 42.72 235.532 42.07 236.528 40.77C237.568 39.47 238.088 37.0433 238.088 33.49C238.088 31.1067 237.85 29.3083 237.373 28.095C236.94 26.8383 236.29 25.9717 235.423 25.495C234.557 25.0183 233.517 24.78 232.303 24.78C231.09 24.78 230.05 25.0183 229.183 25.495C228.317 25.9717 227.645 26.8383 227.168 28.095C226.735 29.3083 226.518 31.1067 226.518 33.49C226.518 37.0433 227.017 39.47 228.013 40.77C229.053 42.07 230.483 42.72 232.303 42.72ZM264.17 46.165C264.17 49.0683 262.653 50.52 259.62 50.52C258.147 50.52 256.977 50.1517 256.11 49.415C255.243 48.6783 254.81 47.595 254.81 46.165V5.54C254.81 3.98 255.157 2.745 255.85 1.835C256.587 0.924998 257.8 0.469998 259.49 0.469998C261.18 0.469998 262.372 0.924998 263.065 1.835C263.802 2.745 264.17 3.98 264.17 5.54V46.165ZM277.25 64.95C271.227 64.95 268.215 63.2167 268.215 59.75C268.215 58.4933 268.562 57.6483 269.255 57.215C269.949 56.825 270.88 56.63 272.05 56.63C273.264 56.63 274.325 56.7167 275.235 56.89C276.145 57.1067 277.164 57.215 278.29 57.215C279.547 57.215 280.435 57.0633 280.955 56.76C281.475 56.4567 281.735 55.8933 281.735 55.07C281.735 54.55 281.627 53.8783 281.41 53.055C281.194 52.2317 280.76 51.0183 280.11 49.415C279.504 47.8117 278.615 45.6017 277.445 42.785L269.32 23.09C269.06 22.44 268.93 21.7467 268.93 21.01C268.93 19.5367 269.472 18.475 270.555 17.825C271.639 17.1317 272.765 16.785 273.935 16.785C275.019 16.785 275.885 17.0667 276.535 17.63C277.229 18.15 277.727 18.8433 278.03 19.71L286.155 40.77C287.802 37.4333 288.885 34.5733 289.405 32.19C289.969 29.8067 290.207 27.6183 290.12 25.625C290.077 24.3683 289.99 23.35 289.86 22.57C289.774 21.7467 289.709 21.2267 289.665 21.01C289.492 19.6233 289.904 18.5833 290.9 17.89C291.94 17.1533 293.154 16.785 294.54 16.785C295.797 16.785 296.75 17.0667 297.4 17.63C298.094 18.15 298.592 18.8867 298.895 19.84C299.112 20.5333 299.242 21.335 299.285 22.245C299.372 23.1117 299.415 23.8267 299.415 24.39C299.415 26.6433 299.199 28.94 298.765 31.28C298.375 33.62 297.79 35.83 297.01 37.91C296.274 39.9467 295.342 41.7233 294.215 43.24C294.042 43.4567 293.717 43.89 293.24 44.54C292.807 45.19 292.265 45.84 291.615 46.49C290.965 47.0967 290.294 47.53 289.6 47.79C290.337 48.57 290.857 49.5883 291.16 50.845C291.464 52.145 291.615 53.4883 291.615 54.875C291.615 57.8217 290.467 60.2267 288.17 62.09C285.917 63.9967 282.277 64.95 277.25 64.95Z" fill="#5770C5"/>
<path d="M162 63C178.681 77.4888 192.284 69.037 197 63" stroke="#5770C5" stroke-width="7" stroke-linecap="round"/>
</svg>
